<svg xmlns="http://www.w3.org/2000/svg" viewBox="0 0 100 100">
  <defs>
    <linearGradient id="bg" x1="0" y1="0" x2="1" y2="1">
      <stop offset="0%" stop-color="#9945FF"/>
      <stop offset="100%" stop-color="#14F195"/>
    </linearGradient>
    <linearGradient id="fg" x1="0" y1="0" x2="1" y2="1">
      <stop offset="0%" stop-color="#9945FF"/>
      <stop offset="100%" stop-color="#14F195"/>
    </linearGradient>
  </defs>
  <rect width="100" height="100" rx="22" fill="url(#bg)"/>
  <path d="M50 88 C50 88 22 70 24 48 C26 38 34 34 40 42 C36 24 46 8 50 4 C49 18 57 24 61 18 C69 6 65 -4 74 -8 C84 14 84 36 72 52 C78 46 84 48 83 60 C81 80 50 88 50 88Z" fill="white" opacity="0.95"/>
  <path d="M50 82 C50 82 30 68 32 50 C35 40 47 41 46 50 C46 38 53 30 58 33 C61 22 56 12 63 7 C70 20 68 38 60 46 C65 41 70 44 68 54 C65 70 50 82 50 82Z" fill="url(#fg)"/>
</svg>
